<svg width="89" height="89" viewBox="0 0 89 89" fill="none" xmlns="http://www.w3.org/2000/svg">
<g clip-path="url(#clip0)">
<path d="M88.9999 44.5C88.9999 69.0763 69.0767 89 44.4999 89C19.9232 89 -6.10352e-05 69.0763 -6.10352e-05 44.5C-6.10352e-05 19.9233 19.9232 2.74003e-05 44.4999 2.74003e-05C69.0767 2.74003e-05 88.9999 19.9233 88.9999 44.5Z" fill="url(#paint0_linear)"/>
<path d="M57.9689 53.8223C57.9689 53.8223 59.1034 59.672 59.2806 59.7075C59.4579 59.7429 65.1659 58.5021 65.1659 58.0057C65.1659 57.5094 63.4685 53.9069 63.4685 53.9069L61.6205 52.7942L57.9689 53.8223Z" fill="#212121"/>
<path fill-rule="evenodd" clip-rule="evenodd" d="M61.9781 56.1553C61.8805 56.382 61.7608 56.6038 61.6055 56.7941C61.5302 56.8872 61.4459 57.0074 61.2995 56.9586C61.1708 56.9187 61.1265 56.7901 61.0954 56.6699C61.0023 56.3243 61.1176 56.04 61.3882 55.8226C62.0269 55.3085 62.6524 54.7847 63.2112 54.1903C62.7366 54.8024 62.2886 55.4372 61.9781 56.1553V56.1553ZM63.8056 53.7915C63.6726 53.7959 63.5661 53.8315 63.4685 53.9069C63.5439 53.8177 63.6193 53.729 63.6903 53.6403C64.5065 52.3322 64.3867 49.9148 62.2975 49.0099C61.9604 48.8635 61.8894 48.6812 62.0092 48.353C62.1467 47.9848 62.1866 47.5945 62.2487 47.2086C62.4128 46.1578 62.1068 45.2835 61.2817 44.6053C61.02 44.3879 60.7628 44.1746 60.4877 43.975C59.9067 43.5625 59.9111 43.5625 60.3591 43.0435C60.7317 42.6092 61.06 42.1386 61.2551 41.6063C61.6188 40.6216 61.5922 39.6679 60.9624 38.7724C59.7559 37.0597 58.1324 36.3057 56.0476 36.6162C55.5908 36.6831 55.3069 36.6162 55.1294 36.111C54.8456 35.3125 54.3443 35.0814 53.4927 35.2145C53.1955 35.2593 52.8983 35.3077 52.6056 35.3742C50.9865 35.7424 49.3586 35.9154 47.6997 35.6984C47.2029 35.6315 46.6751 35.5649 46.1827 35.8C45.9964 36.0533 46.187 36.2396 46.3113 36.4166C46.8569 37.184 47.3493 37.9824 47.8727 38.7631C48.161 39.1938 48.1477 39.2421 47.6687 39.38C45.8811 39.9074 44.1245 40.5151 42.4168 41.2736C42.062 41.4338 41.7692 41.3446 41.4986 41.0918C41.1748 40.7862 41.0107 40.3958 40.9131 39.9744C40.82 39.5663 40.6159 39.3131 40.1679 39.2869C39.8219 39.2647 39.5248 39.1006 39.2453 38.905C39.0546 38.7724 38.8772 38.6171 38.6288 38.6171C37.5731 38.8518 36.7569 39.4994 35.9452 40.1518C35.6746 40.4136 35.4484 40.7063 35.2488 41.0213C34.6455 41.9612 34.6677 42.0991 35.5637 42.7778C36.6948 43.6379 37.0319 44.7823 36.5529 46.1223C36.3754 46.6058 36.1315 47.0578 35.8298 47.4752C35.6835 47.6876 35.5504 47.9272 35.6968 48.1667C36.1536 48.9345 35.9008 49.5905 35.4218 50.2253C35.2089 50.4954 35.1867 50.7664 35.4129 51.0454C35.8787 51.6136 35.7899 52.181 35.4306 52.7625C35.1734 53.1839 34.8229 53.4939 34.3971 53.729C33.4523 54.248 32.4277 54.5452 31.372 54.6787C30.6445 54.767 30.2364 55.0464 30.0147 55.765C29.7042 56.7723 28.99 57.3884 27.89 57.38C26.2399 57.3662 24.6076 57.5038 22.9886 57.8364C20.9925 58.3332 19.0098 58.8926 17.0181 59.3938C12.7865 60.4579 8.54602 61.4914 4.20793 62.0419C3.98614 62.0681 3.80871 62.1306 3.6712 62.2371C4.5539 64.313 9.54403 75.1356 20.2429 81.8246C23.3301 80.4717 26.4218 79.1277 29.5223 77.8063C32.2103 76.6574 34.8673 75.4239 37.7061 74.6476C40.2433 73.9561 42.8426 73.5702 45.4109 73.0512C45.5661 73.0157 45.7169 72.9665 45.8766 72.9355C47.3581 72.6516 48.8264 72.3233 50.228 71.7511C52.5523 70.793 54.6637 69.4535 56.6908 67.9857C58.6425 66.5703 60.5099 65.0537 62.2753 63.3988C63.6637 62.0907 64.9545 60.7245 65.8993 59.0563C66.2009 58.5466 66.3473 57.9877 66.4848 57.4155C66.9505 55.4678 65.6154 54.0439 63.8056 53.7915" fill="#212121"/>
<path fill-rule="evenodd" clip-rule="evenodd" d="M38.614 38.7133C36.7434 38.0413 35.6146 36.6134 34.7421 34.9212C34.613 34.6706 34.448 34.4369 34.3282 34.1823C33.9024 33.2743 33.9241 32.4084 34.5961 31.6096C34.7093 31.4756 34.7935 31.3168 34.8907 31.17H35.21C36.9142 32.1055 38.6082 33.0365 40.6122 33.2144C41.5903 33.3009 42.5586 33.5377 43.5212 33.7524C44.4935 33.9698 45.122 34.6884 45.731 35.4078C45.8685 35.5706 45.9861 35.7458 46.175 35.8541C46.7313 36.7097 47.2879 37.5658 47.8437 38.4223C48.0265 38.704 48.2061 38.9874 48.407 39.301C47.1478 39.7206 45.9182 40.1274 44.6904 40.5399C43.9687 40.7825 43.2639 41.0677 42.5755 41.3929C41.9971 41.6661 41.5868 41.5601 41.2017 41.0367C40.9232 40.6583 40.7901 40.2165 40.677 39.7685C40.6389 39.6186 40.6495 39.4638 40.4073 39.4678C39.8103 39.4771 39.3037 39.2447 38.9001 38.8047C38.8145 38.7115 38.7204 38.7075 38.614 38.7133Z" fill="#F1F1F1"/>
<path fill-rule="evenodd" clip-rule="evenodd" d="M85.3453 62.2899C79.7963 75.1405 69.0975 81.6383 68.3345 82.0868C67.3409 81.6782 66.3518 81.2702 65.3626 80.8576C61.9161 79.4205 58.4829 77.9567 55.0763 76.4313C53.5593 75.7526 52.0689 75.007 50.6451 74.1376C49.4874 73.4323 48.1478 73.2908 46.8348 73.109C46.3647 73.042 45.8856 73.0735 45.4332 72.9133C46.5953 72.6122 47.7752 72.3904 48.924 72.0395C51.2528 71.3254 53.3154 70.0971 55.307 68.7394C58.4386 66.6196 61.375 64.2638 63.9477 61.4737C64.6352 60.733 65.2118 59.9128 65.7485 59.0563C66.9817 59.283 68.2148 59.4999 69.4435 59.7394C71.7811 60.1963 74.1364 60.525 76.4917 60.8794C78.4789 61.1766 80.4617 61.4959 82.4488 61.798C83.3005 61.9266 84.1566 62.0375 85.0171 62.1347C85.1679 62.1568 85.2744 62.2016 85.3453 62.2899Z" fill="#F1F1F1"/>
<path fill-rule="evenodd" clip-rule="evenodd" d="M23.0744 57.9828C23.1462 57.8564 23.1959 57.7309 23.1325 57.581C22.7741 56.7338 23.0779 55.9828 23.518 55.278C23.6825 55.0149 23.6901 54.775 23.5911 54.5297C23.2829 53.765 23.3552 52.9745 23.3995 52.1868C23.4488 51.3103 23.9917 50.7256 24.6513 50.251C24.964 50.0266 24.9387 49.9121 24.6996 49.654C24.1509 49.0614 23.8874 48.3814 24.017 47.532C24.3004 45.6752 24.7786 45.0693 26.5755 44.6173C27.0647 44.4944 26.9756 44.3684 26.6988 44.1063C25.4448 42.9189 25.514 41.3442 25.9398 39.9301C26.0858 39.4462 26.4801 39.1969 26.9387 39.0554C27.982 38.7334 29.0719 38.5901 30.1031 38.2086C30.7406 37.9726 31.3527 38.2259 31.9364 38.4792C33.185 39.0217 34.4266 39.5806 35.6735 40.1262C35.7999 40.1816 35.9454 40.1945 36.0815 40.2273C35.6779 40.6957 35.2858 41.1694 35.0263 41.7421C34.9039 42.0118 34.9221 42.1475 35.2046 42.3192C36.3934 43.0408 37.1514 44.0229 36.9013 45.512C36.7669 46.3126 36.3934 47.0148 35.9059 47.6588C35.8048 47.7923 35.6868 47.8815 35.8154 48.1086C36.3051 48.9758 36.2377 49.5187 35.5515 50.3193C35.335 50.5722 35.2938 50.7017 35.5541 50.9763C36.1769 51.6341 35.9627 52.7111 35.1044 53.4434C34.2838 54.1433 33.276 54.4259 32.262 54.6902C32.2447 54.6947 32.2265 54.6938 32.2092 54.6969C31.6867 54.7892 31.1251 54.7918 30.6523 54.9981C30.1355 55.223 30.238 55.9038 29.9612 56.3416C29.5128 57.0496 28.9685 57.5087 28.0876 57.5242C26.4065 57.5535 24.7267 57.6253 23.0744 57.9828Z" fill="#F1F1F1"/>
</g>
<defs>
<linearGradient id="paint0_linear" x1="-0.459929" y1="88.6477" x2="88.77" y2="0.352319" gradientUnits="userSpaceOnUse">
<stop stop-color="#E35B5D"/>
<stop offset="1" stop-color="#FFA446"/>
</linearGradient>
<clipPath id="clip0">
<rect width="89" height="89" fill="white"/>
</clipPath>
</defs>
</svg>
