<svg width="450" height="100" viewBox="0 0 450 100" fill="none" xmlns="http://www.w3.org/2000/svg">
<g clip-path="url(#clip0)">
<path d="M54.8465 11.8546C56.0119 15.7876 57.2502 19.9027 58.5612 24.1999C59.8723 28.4242 61.2198 32.685 62.6037 36.9821C64.0605 41.2065 65.4808 45.3944 66.8647 49.5459C68.3214 53.6246 69.7054 57.4847 71.0164 61.1264C72.109 57.1934 73.1651 52.9327 74.1849 48.3441C75.2046 43.6828 76.2243 38.8758 77.244 33.9231C78.2638 28.8976 79.2471 23.7993 80.1939 18.6281C81.2137 13.4569 82.1605 8.35861 83.0346 3.33311H97.2379C94.6886 17.0258 91.8479 30.2086 88.7159 42.8816C85.5839 55.4818 82.0877 67.5358 78.2273 79.0434H65.1166C59.4353 64.3311 53.9361 48.2713 48.6189 30.8641C45.924 39.677 43.1926 48.0528 40.4247 55.9917C37.6569 63.9305 34.8891 71.6144 32.1213 79.0434H19.0106C15.0773 67.5358 11.5447 55.4818 8.41272 42.8816C5.35355 30.2086 2.54931 17.0258 0 3.33311H14.7496C15.6236 8.28578 16.5341 13.3477 17.481 18.5189C18.5007 23.69 19.5204 28.7884 20.5401 33.8139C21.6327 38.7666 22.7253 43.5736 23.8178 48.2349C24.9104 52.8962 26.0029 57.1934 27.0955 61.1264C28.4794 57.4119 29.8633 53.5153 31.2472 49.4367C32.704 45.2852 34.1243 41.0972 35.5082 36.8729C36.8921 32.5757 38.2032 28.315 39.4414 24.0906C40.7525 19.8663 41.9543 15.7876 43.0469 11.8546H54.8465Z" fill="#FBFBFB"/>
<path d="M138.747 33.8139C137.654 33.4497 136.124 33.0856 134.158 32.7214C132.264 32.2844 130.043 32.0659 127.493 32.0659C126.037 32.0659 124.471 32.2116 122.795 32.5029C121.193 32.7942 120.064 33.0491 119.408 33.2676V79.0434H106.188V24.6369C108.738 23.69 111.906 22.816 115.694 22.0149C119.554 21.1409 123.815 20.7039 128.477 20.7039C129.351 20.7039 130.37 20.7767 131.536 20.9224C132.701 20.9952 133.867 21.1409 135.032 21.3594C136.197 21.505 137.326 21.7235 138.419 22.0149C139.511 22.2334 140.385 22.4519 141.041 22.6704L138.747 33.8139Z" fill="#FBFBFB"/>
<path d="M170.25 69.7572C174.329 69.7572 177.424 69.5387 179.537 69.1017V54.4622C178.808 54.2437 177.752 54.0252 176.368 53.8067C174.984 53.5882 173.455 53.4789 171.78 53.4789C170.323 53.4789 168.83 53.5882 167.3 53.8067C165.843 54.0252 164.496 54.4257 163.258 55.0084C162.092 55.5911 161.145 56.4287 160.417 57.5212C159.689 58.5408 159.324 59.8518 159.324 61.4542C159.324 64.586 160.308 66.771 162.274 68.0092C164.241 69.1745 166.899 69.7572 170.25 69.7572V69.7572ZM169.157 20.4854C173.528 20.4854 177.206 21.0316 180.192 22.1241C183.179 23.2166 185.546 24.7461 187.294 26.7126C189.115 28.6791 190.389 31.0826 191.118 33.9231C191.919 36.6908 192.32 39.7498 192.32 43.1002V77.7324C190.28 78.1694 187.185 78.6793 183.033 79.2619C178.954 79.9174 174.329 80.2452 169.157 80.2452C165.734 80.2452 162.602 79.9174 159.761 79.2619C156.921 78.6064 154.481 77.5504 152.441 76.0937C150.475 74.637 148.909 72.7433 147.743 70.4127C146.651 68.082 146.104 65.2051 146.104 61.7819C146.104 58.5044 146.723 55.7367 147.962 53.4789C149.273 51.2211 151.021 49.4002 153.206 48.0164C155.391 46.5597 157.904 45.5401 160.745 44.9574C163.658 44.3019 166.681 43.9741 169.813 43.9741C171.27 43.9741 172.799 44.0834 174.402 44.3019C176.004 44.4476 177.716 44.7389 179.537 45.1759V42.9909C179.537 41.4614 179.355 40.0047 178.99 38.6209C178.626 37.2371 177.971 36.0353 177.024 35.0156C176.15 33.9231 174.948 33.0856 173.418 32.5029C171.962 31.9202 170.104 31.6289 167.846 31.6289C164.787 31.6289 161.983 31.8474 159.434 32.2844C156.884 32.7214 154.808 33.2312 153.206 33.8139L151.567 23.1074C153.242 22.5247 155.682 21.942 158.887 21.3594C162.092 20.7767 165.516 20.4854 169.157 20.4854V20.4854Z" fill="#FBFBFB"/>
<path d="M246.314 50.7477C246.314 44.8482 244.967 40.2597 242.272 36.9822C239.65 33.7046 235.389 32.0659 229.489 32.0659C228.251 32.0659 226.94 32.1387 225.556 32.2844C224.245 32.3572 222.934 32.5757 221.622 32.9399V65.6057C222.788 66.4069 224.317 67.1716 226.211 67.8999C228.178 68.5554 230.254 68.8832 232.439 68.8832C237.246 68.8832 240.742 67.2444 242.927 63.9669C245.185 60.6894 246.314 56.283 246.314 50.7477V50.7477ZM259.862 50.5292C259.862 54.8992 259.279 58.905 258.114 62.5467C257.021 66.1884 255.419 69.3202 253.307 71.9422C251.194 74.5642 248.536 76.6035 245.331 78.0602C242.199 79.5169 238.63 80.2452 234.624 80.2452C231.929 80.2452 229.452 79.9175 227.195 79.262C224.937 78.6065 223.079 77.8781 221.622 77.077V99.2547H208.402V23.7629C211.097 23.0345 214.412 22.3426 218.345 21.6871C222.278 21.0316 226.43 20.7039 230.8 20.7039C235.316 20.7039 239.358 21.3958 242.927 22.7796C246.496 24.1635 249.519 26.1664 251.996 28.7884C254.545 31.3376 256.475 34.4694 257.786 38.1839C259.17 41.8256 259.862 45.9407 259.862 50.5292V50.5292Z" fill="#FBFBFB"/>
<path d="M285.396 41.1337C285.396 45.2852 285.905 49.0725 286.925 52.4957C287.945 55.846 289.402 58.7229 291.295 61.1264C293.262 63.4571 295.629 65.2779 298.397 66.5889C301.165 67.8999 304.297 68.5554 307.793 68.5554C311.216 68.5554 314.312 67.8999 317.08 66.5889C319.848 65.2779 322.178 63.4571 324.072 61.1264C326.039 58.7229 327.532 55.846 328.552 52.4957C329.571 49.0725 330.081 45.2852 330.081 41.1337C330.081 36.9821 329.571 33.2312 328.552 29.8809C327.532 26.4577 326.039 23.5808 324.072 21.2501C322.178 18.8466 319.848 16.9894 317.08 15.6784C314.312 14.3674 311.216 13.7119 307.793 13.7119C304.297 13.7119 301.165 14.3674 298.397 15.6784C295.629 16.9894 293.262 18.8466 291.295 21.2501C289.402 23.6536 287.945 26.5306 286.925 29.8809C285.905 33.2312 285.396 36.9821 285.396 41.1337ZM344.503 41.1337C344.503 47.6158 343.52 53.3333 341.553 58.2859C339.659 63.2386 337.037 67.3901 333.687 70.7404C330.409 74.0179 326.549 76.4943 322.106 78.1694C317.662 79.8446 312.928 80.6822 307.902 80.6822C302.877 80.6822 298.106 79.8446 293.59 78.1694C289.147 76.4943 285.25 74.0179 281.899 70.7404C278.622 67.3901 276 63.2386 274.033 58.2859C272.066 53.3333 271.083 47.6158 271.083 41.1337C271.083 34.6515 272.066 28.9705 274.033 24.0906C276 19.138 278.658 14.9865 282.009 11.6361C285.432 8.28578 289.365 5.77303 293.808 4.09786C298.251 2.42269 302.949 1.58511 307.902 1.58511C312.855 1.58511 317.553 2.42269 321.996 4.09786C326.439 5.77303 330.3 8.28578 333.577 11.6361C336.928 14.9865 339.587 19.138 341.553 24.0906C343.52 28.9705 344.503 34.6515 344.503 41.1337V41.1337Z" fill="#FBFBFB"/>
<path d="M391.401 33.8139C390.309 33.4497 388.779 33.0856 386.813 32.7214C384.919 32.2844 382.697 32.0659 380.148 32.0659C378.691 32.0659 377.125 32.2116 375.45 32.5029C373.847 32.7942 372.718 33.0491 372.063 33.2676V79.0434H358.843V24.6369C361.392 23.69 364.561 22.816 368.348 22.0149C372.209 21.1409 376.47 20.7039 381.131 20.7039C382.005 20.7039 383.025 20.7767 384.19 20.9224C385.356 20.9952 386.521 21.1409 387.687 21.3594C388.852 21.505 389.981 21.7235 391.074 22.0149C392.166 22.2334 393.04 22.4519 393.696 22.6704L391.401 33.8139Z" fill="#FBFBFB"/>
<path d="M413.181 48.9997C413.181 54.6078 414.382 58.7229 416.786 61.3449C419.263 63.8941 422.431 65.1687 426.291 65.1687C428.404 65.1687 430.37 64.8774 432.191 64.2947C434.085 63.712 435.615 63.0201 436.78 62.2189V32.6121C435.833 32.3936 434.668 32.2116 433.284 32.0659C431.9 31.8474 430.152 31.7381 428.039 31.7381C423.232 31.7381 419.554 33.3405 417.005 36.5452C414.455 39.677 413.181 43.8285 413.181 48.9997V48.9997ZM450 73.2532C450 82.3574 447.669 89.0216 443.008 93.246C438.419 97.4703 431.354 99.5825 421.812 99.5825C418.316 99.5825 414.892 99.2912 411.542 98.7085C408.264 98.1258 405.278 97.3611 402.583 96.4142L404.986 85.1615C407.244 86.1083 409.794 86.8731 412.634 87.4557C415.548 88.0384 418.68 88.3297 422.03 88.3297C427.348 88.3297 431.135 87.2372 433.393 85.0522C435.651 82.8672 436.78 79.6261 436.78 75.329V73.144C435.469 73.7995 433.721 74.4549 431.536 75.1105C429.423 75.766 426.983 76.0937 424.216 76.0937C420.574 76.0937 417.223 75.511 414.164 74.3457C411.178 73.1804 408.592 71.4688 406.407 69.2109C404.295 66.9531 402.619 64.149 401.381 60.7987C400.216 57.3755 399.633 53.4425 399.633 48.9997C399.633 44.8482 400.252 41.0244 401.49 37.5284C402.801 34.0324 404.659 31.0462 407.062 28.5699C409.539 26.0935 412.525 24.1635 416.021 22.7796C419.518 21.3958 423.487 20.7039 427.93 20.7039C432.228 20.7039 436.307 21.0316 440.167 21.6871C444.027 22.3426 447.305 23.0345 450 23.7629V73.2532Z" fill="#FBFBFB"/>
<path d="M348.671 40.7652C348.671 63.2788 330.419 81.5303 307.904 81.5303C285.389 81.5303 267.136 63.2788 267.136 40.7652C267.136 18.2511 285.389 1.38514e-05 307.904 1.38514e-05C330.419 1.38514e-05 348.671 18.2511 348.671 40.7652Z" fill="url(#paint0_linear)"/>
<path d="M320.243 49.305C320.243 49.305 321.282 54.6638 321.445 54.6963C321.607 54.7288 326.836 53.5921 326.836 53.1374C326.836 52.6827 325.281 49.3825 325.281 49.3825L323.588 48.3632L320.243 49.305Z" fill="#212121"/>
<path fill-rule="evenodd" clip-rule="evenodd" d="M323.916 51.4422C323.826 51.6499 323.717 51.853 323.575 52.0273C323.505 52.1127 323.428 52.2228 323.294 52.1781C323.176 52.1415 323.136 52.0237 323.107 51.9136C323.022 51.597 323.128 51.3366 323.375 51.1375C323.961 50.6665 324.534 50.1866 325.046 49.6421C324.611 50.2029 324.2 50.7844 323.916 51.4422V51.4422ZM325.59 49.2768C325.468 49.2808 325.371 49.3134 325.281 49.3825C325.35 49.3008 325.419 49.2196 325.484 49.1383C326.232 47.94 326.122 45.7254 324.208 44.8965C323.9 44.7624 323.835 44.5954 323.944 44.2947C324.07 43.9575 324.107 43.5999 324.164 43.2464C324.314 42.2837 324.034 41.4829 323.278 40.8616C323.038 40.6625 322.802 40.467 322.551 40.2842C322.018 39.9063 322.022 39.9063 322.433 39.4308C322.774 39.033 323.075 38.6019 323.254 38.1143C323.587 37.2122 323.562 36.3386 322.985 35.5182C321.88 33.9493 320.393 33.2585 318.483 33.543C318.064 33.6043 317.804 33.543 317.642 33.0802C317.382 32.3488 316.922 32.1371 316.142 32.259C315.87 32.3 315.598 32.3443 315.329 32.4052C313.846 32.7425 312.355 32.901 310.835 32.7023C310.38 32.641 309.896 32.58 309.445 32.7953C309.275 33.0273 309.449 33.198 309.563 33.3601C310.063 34.0631 310.514 34.7945 310.994 35.5097C311.258 35.9042 311.246 35.9485 310.807 36.0749C309.169 36.558 307.56 37.1147 305.995 37.8096C305.67 37.9562 305.402 37.8746 305.154 37.643C304.858 37.363 304.707 37.0054 304.618 36.6194C304.532 36.2455 304.346 36.0135 303.935 35.9896C303.618 35.9692 303.346 35.8189 303.09 35.6397C302.915 35.5182 302.753 35.376 302.525 35.376C301.558 35.5909 300.81 36.1842 300.067 36.7819C299.819 37.0216 299.611 37.2898 299.429 37.5784C298.876 38.4394 298.896 38.5658 299.717 39.1874C300.753 39.9753 301.062 41.0237 300.623 42.2512C300.461 42.6941 300.237 43.1082 299.961 43.4906C299.827 43.6852 299.705 43.9046 299.839 44.1241C300.258 44.8274 300.026 45.4284 299.587 46.0099C299.392 46.2573 299.372 46.5056 299.579 46.7612C300.006 47.2817 299.924 47.8014 299.595 48.3341C299.359 48.7202 299.038 49.0042 298.648 49.2196C297.783 49.695 296.844 49.9672 295.877 50.0895C295.211 50.1704 294.837 50.4264 294.634 51.0847C294.349 52.0074 293.695 52.5718 292.687 52.5641C291.175 52.5515 289.68 52.6775 288.197 52.9823C286.368 53.4374 284.552 53.9497 282.727 54.4089C278.85 55.3837 274.966 56.3305 270.991 56.8348C270.788 56.8587 270.626 56.916 270.5 57.0135C271.308 58.9152 275.88 68.8295 285.681 74.9571C288.51 73.7177 291.342 72.4865 294.182 71.276C296.645 70.2236 299.079 69.0936 301.68 68.3825C304.004 67.749 306.385 67.3955 308.738 66.9201C308.881 66.8875 309.019 66.8425 309.165 66.814C310.522 66.554 311.867 66.2533 313.151 65.7291C315.281 64.8514 317.215 63.6243 319.072 62.2797C320.86 60.9831 322.571 59.5938 324.188 58.0777C325.46 56.8795 326.643 55.6279 327.508 54.0997C327.784 53.6328 327.919 53.1208 328.045 52.5966C328.471 50.8124 327.248 49.508 325.59 49.2768" fill="#212121"/>
<path fill-rule="evenodd" clip-rule="evenodd" d="M302.511 35.4641C300.798 34.8485 299.764 33.5405 298.964 31.9903C298.846 31.7607 298.695 31.5466 298.585 31.3133C298.195 30.4816 298.215 29.6884 298.831 28.9566C298.934 28.8339 299.012 28.6884 299.101 28.5539H299.393C300.954 29.4109 302.506 30.2638 304.342 30.4267C305.238 30.5059 306.125 30.7229 307.007 30.9196C307.898 31.1187 308.474 31.777 309.032 32.4361C309.158 32.5852 309.265 32.7457 309.438 32.8448C309.948 33.6287 310.458 34.4129 310.967 35.1975C311.134 35.4556 311.299 35.7152 311.483 36.0025C310.329 36.3869 309.203 36.7595 308.078 37.1374C307.417 37.3597 306.771 37.6209 306.141 37.9188C305.611 38.1691 305.235 38.072 304.882 37.5925C304.627 37.2459 304.505 36.8412 304.401 36.4308C304.367 36.2934 304.376 36.1516 304.154 36.1553C303.607 36.1638 303.143 35.9509 302.774 35.5478C302.695 35.4625 302.609 35.4588 302.511 35.4641Z" fill="#F1F1F1"/>
<path fill-rule="evenodd" clip-rule="evenodd" d="M345.323 57.0619C340.24 68.834 330.438 74.7864 329.739 75.1972C328.829 74.823 327.923 74.4492 327.017 74.0713C323.859 72.7547 320.714 71.4138 317.593 70.0164C316.203 69.3947 314.838 68.7117 313.533 67.9152C312.473 67.2692 311.246 67.1395 310.043 66.9729C309.612 66.9116 309.173 66.9404 308.759 66.7937C309.823 66.5178 310.904 66.3147 311.957 65.9933C314.09 65.3391 315.98 64.2139 317.804 62.9701C320.673 61.0282 323.363 58.8701 325.72 56.3143C326.35 55.6357 326.878 54.8844 327.37 54.0997C328.5 54.3074 329.629 54.5061 330.755 54.7255C332.897 55.144 335.054 55.4451 337.212 55.7698C339.033 56.042 340.849 56.3346 342.67 56.6113C343.45 56.7291 344.234 56.8307 345.022 56.9197C345.161 56.94 345.258 56.9811 345.323 57.0619Z" fill="#F1F1F1"/>
<path fill-rule="evenodd" clip-rule="evenodd" d="M288.275 53.1164C288.341 53.0006 288.387 52.8856 288.329 52.7482C288 51.9721 288.279 51.2842 288.682 50.6385C288.833 50.3976 288.839 50.1777 288.749 49.953C288.466 49.2525 288.533 48.5284 288.573 47.8067C288.618 47.0038 289.116 46.4683 289.72 46.0335C290.007 45.8279 289.983 45.723 289.764 45.4865C289.262 44.9437 289.02 44.3208 289.139 43.5426C289.399 41.8417 289.837 41.2866 291.483 40.8726C291.931 40.76 291.849 40.6446 291.596 40.4045C290.447 39.3167 290.51 37.8742 290.901 36.5788C291.034 36.1355 291.395 35.9071 291.816 35.7775C292.771 35.4825 293.77 35.3512 294.715 35.0018C295.299 34.7856 295.859 35.0176 296.394 35.2496C297.538 35.7466 298.675 36.2586 299.818 36.7584C299.934 36.8092 300.067 36.821 300.192 36.851C299.822 37.2801 299.463 37.7141 299.225 38.2387C299.113 38.4857 299.129 38.6101 299.388 38.7673C300.477 39.4284 301.172 40.3281 300.943 41.6922C300.819 42.4256 300.477 43.0688 300.031 43.6588C299.938 43.7811 299.83 43.8628 299.948 44.0709C300.396 44.8653 300.335 45.3626 299.706 46.0961C299.508 46.3277 299.47 46.4463 299.708 46.6978C300.279 47.3004 300.083 48.287 299.296 48.9579C298.545 49.5991 297.621 49.8579 296.692 50.1001C296.677 50.1042 296.66 50.1034 296.644 50.1062C296.165 50.1907 295.651 50.1932 295.218 50.3821C294.744 50.5881 294.838 51.2119 294.585 51.6129C294.174 52.2614 293.675 52.682 292.868 52.6962C291.328 52.723 289.789 52.7889 288.275 53.1164Z" fill="#F1F1F1"/>
</g>
<defs>
<linearGradient id="paint0_linear" x1="266.715" y1="81.2076" x2="348.456" y2="0.318335" gradientUnits="userSpaceOnUse">
<stop stop-color="#E35B5D"/>
<stop offset="1" stop-color="#FFA446"/>
</linearGradient>
<clipPath id="clip0">
<rect width="450" height="99.5825" fill="white"/>
</clipPath>
</defs>
</svg>
